<svg xmlns="http://www.w3.org/2000/svg" xmlns:xlink="http://www.w3.org/1999/xlink"><symbol id="brain" viewBox="0 0 512 512"><path d="M512 234.67c0-33.45-16.04-64.85-42.67-84.86v-.47c0-40.47-28.31-74.43-66.18-83.16C394.43 28.33 360.47 0 320 0c-25.47 0-48.34 11.22-64 28.95C240.34 11.2 217.47 0 192 0c-40.47 0-74.43 28.31-83.16 66.18-37.85 8.73-66.18 42.69-66.18 83.16v.47C16.04 169.81 0 201.22 0 234.67c0 18.9 5.01 37.06 14.63 53.33C5.03 304.28 0 322.43 0 341.33c0 35.97 18.3 69.21 48.36 88.87 15.32 48.62 59.99 81.79 111.64 81.79 39.64 0 74.75-19.75 96-49.94 21.25 30.19 56.36 49.94 96 49.94 51.67 0 96.32-33.19 111.66-81.79C493.7 410.55 512 377.29 512 341.33c0-18.9-5.01-37.06-14.63-53.33 9.6-16.28 14.63-34.43 14.63-53.33ZM160 469.34c-34.86 0-64.7-23.79-72.55-57.86l-2.2-9.45-8.53-4.57c-21.01-11.24-34.07-32.75-34.07-56.13 0-14.4 4.99-28.2 14.46-39.94l10.84-13.4-10.84-13.4c-9.47-11.71-14.46-25.51-14.46-39.94 0-22.83 12.61-44.1 32.92-55.53l13.23-7.42s-3.48-19.84-3.48-22.38c0-23.53 19.14-42.67 42.67-42.67h21.33V85.32c0-23.53 19.14-42.67 42.67-42.67s42.67 19.14 42.67 42.67v309.33c0 41.17-33.49 74.67-74.67 74.67h.02ZM454.87 301.4c9.47 11.71 14.46 25.51 14.46 39.94 0 23.38-13.06 44.89-34.05 56.13l-8.53 4.57-2.18 9.43c-7.87 34.07-37.72 57.86-72.58 57.86-41.17 0-74.67-33.49-74.67-74.67V85.33c0-23.53 19.14-42.67 42.67-42.67s42.67 19.14 42.67 42.67v21.33h21.33c23.53 0 42.67 19.14 42.67 42.67 0 2.56-3.48 22.38-3.48 22.38l13.23 7.42c20.31 11.41 32.92 32.68 32.92 55.53 0 14.4-4.99 28.2-14.46 39.94L444.03 288l10.84 13.4Z"/></symbol><symbol id="hand-heart" viewBox="0 0 511.91 512"><path d="M191.25 512H85.33C38.2 512 0 473.79 0 426.67V320c0-47.13 38.21-85.33 85.33-85.33h188.95a67.07 67.07 0 0 1 57.39 32.41l68.63-75.41c23.86-26.24 64.47-28.17 90.71-4.31l.04.04c25.89 23.79 27.95 63.93 4.63 90.24L350.61 440.56a213.592 213.592 0 0 1-159.36 71.45ZM85.33 277.33c-23.56 0-42.67 19.1-42.67 42.67v106.67c0 23.56 19.1 42.67 42.67 42.67h105.92c48.67-.02 95.02-20.8 127.4-57.13l145.17-162.94c7.84-8.83 7.16-22.32-1.54-30.31a21.962 21.962 0 0 0-15.53-5.61c-5.72.24-11.1 2.77-14.93 7.02L337.4 324.28a67.387 67.387 0 0 1-53.67 43.78l-110.1 15.74c-11.66 1.67-22.48-6.43-24.15-18.09-1.67-11.66 6.43-22.48 18.09-24.15l110.12-15.72c13.33-1.86 22.62-14.18 20.76-27.5-1.68-12.05-12-21.01-24.17-20.99H85.33Zm149.33-83.75c-9.67.03-19.06-3.26-26.6-9.3C171.54 154.97 128 110.94 128 68.27 126.91 31.78 155.51 1.26 192 0a61.53 61.53 0 0 1 42.67 17.43A61.488 61.488 0 0 1 277.33 0c36.49 1.26 65.09 31.78 64 68.27 0 42.67-43.54 86.7-80.09 116.03a42.356 42.356 0 0 1-26.58 9.28ZM191.99 42.67c-12.9 1.29-22.39 12.68-21.33 25.6 0 19.2 24.55 50.99 64.13 82.75 39.32-31.77 63.87-63.55 63.87-82.75 1.05-12.92-8.43-24.31-21.33-25.6-12.9 1.29-22.39 12.68-21.33 25.6 0 11.78-9.55 21.33-21.33 21.33s-21.33-9.55-21.33-21.33c1.05-12.92-8.43-24.31-21.33-25.6Z"/></symbol><symbol id="heart-o" viewBox="0 0 28 28"><path d="M26 9.312c0-4.391-2.969-5.313-5.469-5.313-2.328 0-4.953 2.516-5.766 3.484-.375.453-1.156.453-1.531 0-.812-.969-3.437-3.484-5.766-3.484-2.5 0-5.469.922-5.469 5.313 0 2.859 2.891 5.516 2.922 5.547l9.078 8.75 9.063-8.734C23.109 14.828 26 12.172 26 9.312zm2 0c0 3.75-3.437 6.891-3.578 7.031l-9.734 9.375c-.187.187-.438.281-.688.281s-.5-.094-.688-.281l-9.75-9.406c-.125-.109-3.563-3.25-3.563-7 0-4.578 2.797-7.313 7.469-7.313 2.734 0 5.297 2.156 6.531 3.375 1.234-1.219 3.797-3.375 6.531-3.375 4.672 0 7.469 2.734 7.469 7.313z"/></symbol><symbol id="mail" viewBox="0 0 512 469.33"><path d="M405.33 0H106.67C47.79.07.07 47.79 0 106.67v256c.07 58.88 47.79 106.6 106.67 106.67h298.67c58.88-.07 106.6-47.79 106.67-106.67v-256C511.94 47.79 464.22.07 405.34 0ZM106.67 42.67h298.67c26.13.05 49.61 15.99 59.31 40.26L301.28 246.32c-25.03 24.93-65.51 24.93-90.54 0L47.36 82.92c9.7-24.27 33.17-40.2 59.31-40.26Zm298.67 384H106.67c-35.35 0-64-28.65-64-64v-224l137.9 137.81c41.69 41.59 109.18 41.59 150.87 0l137.9-137.81v224c0 35.35-28.65 64-64 64Z"/></symbol><symbol id="mans" viewBox="0 0 512 512"><path d="M160 277.33c-53.02 0-96-42.98-96-96s42.98-96 96-96 96 42.98 96 96c-.06 52.99-43.01 95.94-96 96ZM160 128c-29.46 0-53.33 23.88-53.33 53.33s23.88 53.33 53.33 53.33 53.33-23.88 53.33-53.33S189.45 128 160 128Zm160 362.67V480c0-88.37-71.63-160-160-160S0 391.63 0 480v10.67C0 502.45 9.55 512 21.33 512s21.33-9.55 21.33-21.33V480c0-64.8 52.53-117.33 117.33-117.33S277.32 415.2 277.32 480v10.67c0 11.78 9.55 21.33 21.33 21.33s21.33-9.55 21.33-21.33ZM512 384c0-82.47-66.86-149.33-149.34-149.33-36.73 0-72.18 13.54-99.56 38.03-8.85 7.78-9.72 21.26-1.94 30.11 7.78 8.85 21.26 9.72 30.11 1.94.1-.09.2-.18.3-.26 43.91-39.27 111.35-35.51 150.61 8.41a106.667 106.667 0 0 1 27.16 71.1c0 11.78 9.55 21.33 21.33 21.33S512 395.78 512 384ZM373.33 192c-53.02 0-96-42.98-96-96s42.98-96 96-96 96 42.98 96 96c-.06 52.99-43.01 95.94-96 96Zm0-149.33C343.87 42.67 320 66.55 320 96s23.88 53.33 53.33 53.33 53.33-23.88 53.33-53.33-23.88-53.33-53.33-53.33Z"/></symbol><symbol id="search" viewBox="0 0 32 32"><path d="M19.427 20.427a8.5 8.5 0 1 1 2-2l5.585 5.585c.55.55.546 1.431 0 1.976l-.023.023a1.398 1.398 0 0 1-1.976 0l-5.585-5.585zM14.5 20a6.5 6.5 0 1 0 0-13 6.5 6.5 0 0 0 0 13z"/></symbol><symbol id="telegram" viewBox="0 0 511.99 426.67"><path d="m200.9 281.2-8.47 119.13c12.12 0 17.37-5.21 23.66-11.46l56.81-54.29 117.72 86.21c21.59 12.03 36.8 5.7 42.62-19.86l77.27-362.07.02-.02c6.85-31.91-11.54-44.39-32.58-36.57L23.77 176.16c-31 12.03-30.53 29.31-5.27 37.14l116.12 36.12L404.33 80.65c12.69-8.41 24.23-3.75 14.74 4.65L200.89 281.2Z"/></symbol><symbol id="vk" viewBox="0 0 532.34 303.73"><path d="M472 126.98c7.57-9.79 13.58-17.64 18.02-23.56 31.97-42.5 45.82-69.65 41.57-81.48l-1.67-2.77c-1.11-1.66-3.98-3.19-8.59-4.58-4.62-1.38-10.53-1.6-17.74-.69l-79.82.56c-1.85-.18-3.7-.14-5.55.13-1.85.28-3.05.56-3.61.83l-1.38.69-1.11.83c-.92.55-1.94 1.52-3.05 2.91-1.11 1.39-2.04 3-2.77 4.85-8.68 22.36-18.57 43.15-29.66 62.36-6.84 11.46-13.12 21.4-18.84 29.79-5.73 8.41-10.53 14.6-14.41 18.57-3.88 3.97-7.39 7.17-10.53 9.56-3.15 2.41-5.55 3.42-7.2 3.05-1.67-.37-3.24-.73-4.71-1.11-2.59-1.66-4.67-3.92-6.24-6.79-1.57-2.86-2.63-6.46-3.19-10.81-.55-4.34-.88-8.08-.97-11.23-.1-3.14-.05-7.57.14-13.31.18-5.73.27-9.6.27-11.64 0-7.01.14-14.64.42-22.86.27-8.22.51-14.74.69-19.54.18-4.8.27-9.88.27-15.24s-.32-9.56-.98-12.61c-.65-3.04-1.62-6-2.91-8.87-1.3-2.86-3.19-5.08-5.69-6.65-2.5-1.57-5.59-2.82-9.28-3.75-9.8-2.22-22.27-3.41-37.42-3.6-34.37-.36-56.45 1.86-66.24 6.66-3.88 2.04-7.39 4.8-10.53 8.32-3.33 4.07-3.79 6.29-1.38 6.65 11.09 1.66 18.94 5.64 23.56 11.92l1.66 3.32c1.29 2.41 2.58 6.66 3.88 12.75 1.29 6.1 2.12 12.84 2.5 20.23.92 13.49.92 25.03 0 34.65-.92 9.61-1.8 17.09-2.63 22.44-.83 5.36-2.08 9.7-3.74 13.02-1.66 3.33-2.77 5.37-3.33 6.11-.56.73-1.02 1.2-1.38 1.38-2.4.92-4.9 1.38-7.48 1.38s-5.73-1.3-9.43-3.89c-3.7-2.58-7.53-6.14-11.5-10.67-3.98-4.52-8.45-10.86-13.45-18.99-4.99-8.12-10.17-17.74-15.52-28.82l-4.43-8.04c-2.77-5.16-6.56-12.7-11.36-22.58s-9.06-19.44-12.75-28.69c-1.48-3.87-3.7-6.83-6.65-8.87l-1.38-.83c-.92-.74-2.4-1.52-4.44-2.35a30.33 30.33 0 0 0-6.38-1.81l-75.94.55c-7.76 0-13.02 1.76-15.8 5.27L.81 20.79c-.56.93-.83 2.41-.83 4.44s.56 4.53 1.66 7.48C12.73 58.77 24.79 83.9 37.81 108.1c13.03 24.21 24.35 43.71 33.95 58.49 9.61 14.79 19.4 28.73 29.38 41.85s16.58 21.52 19.82 25.21c3.23 3.7 5.77 6.48 7.62 8.32l6.93 6.66c4.43 4.43 10.95 9.74 19.54 15.94 8.59 6.19 18.1 12.29 28.55 18.29 10.43 6.01 22.59 10.9 36.44 14.69 13.86 3.79 27.34 5.32 40.47 4.57h31.87c6.47-.55 11.36-2.58 14.69-6.1l1.11-1.38c.73-1.1 1.43-2.82 2.08-5.12.64-2.31.98-4.85.98-7.62-.19-7.94.42-15.12 1.8-21.48 1.38-6.38 2.95-11.17 4.71-14.42 1.76-3.23 3.74-5.95 5.96-8.18 2.22-2.22 3.78-3.55 4.71-4.02.92-.45 1.67-.78 2.22-.97 4.43-1.48 9.65-.04 15.66 4.3 6 4.35 11.64 9.7 16.91 16.08 5.26 6.38 11.59 13.53 18.98 21.48 7.39 7.94 13.86 13.86 19.4 17.74l5.55 3.34c3.7 2.21 8.49 4.24 14.41 6.1 5.91 1.84 11.09 2.31 15.52 1.38l70.95-1.11c7.02 0 12.47-1.15 16.35-3.46 3.88-2.3 6.19-4.85 6.93-7.62.73-2.77.78-5.9.14-9.42-.65-3.51-1.3-5.95-1.94-7.34-.65-1.38-1.25-2.55-1.81-3.46-9.24-16.63-26.89-37.05-52.94-61.26l-.56-.55-.27-.28-.27-.27h-.28c-11.83-11.27-19.31-18.85-22.45-22.74-5.73-7.38-7.02-14.86-3.88-22.44 2.2-5.74 10.51-17.85 24.93-36.33Z"/></symbol><symbol id="youtube" viewBox="0 0 32 32"><path d="M31.681 9.6s-.313-2.206-1.275-3.175C29.187 5.15 27.825 5.144 27.2 5.069c-4.475-.325-11.194-.325-11.194-.325h-.012s-6.719 0-11.194.325c-.625.075-1.987.081-3.206 1.356C.631 7.394.325 9.6.325 9.6s-.319 2.588-.319 5.181v2.425c0 2.587.319 5.181.319 5.181s.313 2.206 1.269 3.175c1.219 1.275 2.819 1.231 3.531 1.369 2.563.244 10.881.319 10.881.319s6.725-.012 11.2-.331c.625-.075 1.988-.081 3.206-1.356.962-.969 1.275-3.175 1.275-3.175s.319-2.587.319-5.181v-2.425c-.006-2.588-.325-5.181-.325-5.181zM12.694 20.15v-8.994l8.644 4.513-8.644 4.481z"/></symbol></svg>